<svg width="16" height="16" viewBox="0 0 16 16" fill="none" xmlns="http://www.w3.org/2000/svg">
<path d="M12.6668 2.66671H11.3335V2.00004C11.3335 1.82323 11.2633 1.65366 11.1382 1.52864C11.0132 1.40361 10.8436 1.33337 10.6668 1.33337C10.49 1.33337 10.3204 1.40361 10.1954 1.52864C10.0704 1.65366 10.0002 1.82323 10.0002 2.00004V2.66671H6.00016V2.00004C6.00016 1.82323 5.92992 1.65366 5.8049 1.52864C5.67988 1.40361 5.51031 1.33337 5.3335 1.33337C5.15668 1.33337 4.98712 1.40361 4.86209 1.52864C4.73707 1.65366 4.66683 1.82323 4.66683 2.00004V2.66671H3.3335C2.80306 2.66671 2.29436 2.87742 1.91928 3.25249C1.54421 3.62757 1.3335 4.13627 1.3335 4.66671V12.6667C1.3335 13.1971 1.54421 13.7058 1.91928 14.0809C2.29436 14.456 2.80306 14.6667 3.3335 14.6667H12.6668C13.1973 14.6667 13.706 14.456 14.081 14.0809C14.4561 13.7058 14.6668 13.1971 14.6668 12.6667V4.66671C14.6668 4.13627 14.4561 3.62757 14.081 3.25249C13.706 2.87742 13.1973 2.66671 12.6668 2.66671ZM13.3335 12.6667C13.3335 12.8435 13.2633 13.0131 13.1382 13.1381C13.0132 13.2631 12.8436 13.3334 12.6668 13.3334H3.3335C3.15668 13.3334 2.98712 13.2631 2.86209 13.1381C2.73707 13.0131 2.66683 12.8435 2.66683 12.6667V8.00004H13.3335V12.6667ZM13.3335 6.66671H2.66683V4.66671C2.66683 4.4899 2.73707 4.32033 2.86209 4.1953C2.98712 4.07028 3.15668 4.00004 3.3335 4.00004H4.66683V4.66671C4.66683 4.84352 4.73707 5.01309 4.86209 5.13811C4.98712 5.26314 5.15668 5.33337 5.3335 5.33337C5.51031 5.33337 5.67988 5.26314 5.8049 5.13811C5.92992 5.01309 6.00016 4.84352 6.00016 4.66671V4.00004H10.0002V4.66671C10.0002 4.84352 10.0704 5.01309 10.1954 5.13811C10.3204 5.26314 10.49 5.33337 10.6668 5.33337C10.8436 5.33337 11.0132 5.26314 11.1382 5.13811C11.2633 5.01309 11.3335 4.84352 11.3335 4.66671V4.00004H12.6668C12.8436 4.00004 13.0132 4.07028 13.1382 4.1953C13.2633 4.32033 13.3335 4.4899 13.3335 4.66671V6.66671Z" fill="#C6C8CC"/>
</svg>
