<svg width="16" height="16" viewBox="0 0 16 16" fill="none" xmlns="http://www.w3.org/2000/svg">
<path d="M10.8695 2.33333C11.2145 2.54084 11.4999 2.83407 11.698 3.18453C11.8962 3.53499 12.0002 3.93075 12.0002 4.33333C12.0002 4.73592 11.8962 5.13168 11.698 5.48214C11.4999 5.8326 11.2145 6.12583 10.8695 6.33333M14.6668 14V13.6C14.6668 12.1067 14.6668 11.36 14.3762 10.7893C14.1205 10.2876 13.7126 9.87966 13.2108 9.624M6.3335 6.66667C6.63991 6.66667 6.94333 6.60631 7.22642 6.48905C7.50952 6.37179 7.76674 6.19992 7.98341 5.98325C8.20008 5.76658 8.37195 5.50935 8.48922 5.22626C8.60648 4.94317 8.66683 4.63975 8.66683 4.33333C8.66683 4.02692 8.60648 3.7235 8.48922 3.44041C8.37195 3.15731 8.20008 2.90009 7.98341 2.68342C7.76674 2.46675 7.50952 2.29488 7.22642 2.17761C6.94333 2.06035 6.63991 2 6.3335 2C5.71466 2 5.12117 2.24583 4.68358 2.68342C4.246 3.121 4.00016 3.71449 4.00016 4.33333C4.00016 4.95217 4.246 5.54566 4.68358 5.98325C5.12117 6.42083 5.71466 6.66667 6.3335 6.66667ZM1.3335 13.6V14H11.3335V13.6C11.3335 12.1067 11.3335 11.36 11.0428 10.7893C10.7872 10.2876 10.3792 9.87966 9.8775 9.624C9.30683 9.33333 8.56016 9.33333 7.06683 9.33333H5.60016C4.10683 9.33333 3.36016 9.33333 2.7895 9.624C2.28775 9.87966 1.87982 10.2876 1.62416 10.7893C1.3335 11.36 1.3335 12.1067 1.3335 13.6Z" stroke="#C6C8CC" stroke-width="1.5" stroke-linecap="round" stroke-linejoin="round"/>
</svg>
