<svg width="24" height="24" viewBox="0 0 24 24" fill="none" xmlns="http://www.w3.org/2000/svg">
<g clip-path="url(#clip0_4182_241)">
<path fill-rule="evenodd" clip-rule="evenodd" d="M15.7069 11.293C15.8943 11.4805 15.9996 11.7348 15.9996 12C15.9996 12.2652 15.8943 12.5195 15.7069 12.707L10.0499 18.364C9.95761 18.4595 9.84726 18.5357 9.72526 18.5881C9.60326 18.6405 9.47204 18.6681 9.33926 18.6692C9.20648 18.6704 9.0748 18.6451 8.9519 18.5948C8.829 18.5445 8.71735 18.4703 8.62346 18.3764C8.52957 18.2825 8.45531 18.1708 8.40503 18.048C8.35475 17.9251 8.32945 17.7934 8.3306 17.6606C8.33176 17.5278 8.35934 17.3966 8.41175 17.2746C8.46416 17.1526 8.54034 17.0422 8.63585 16.95L13.5859 12L8.63585 7.05C8.4537 6.8614 8.3529 6.60879 8.35518 6.3466C8.35746 6.0844 8.46263 5.83359 8.64804 5.64818C8.83344 5.46277 9.08426 5.3576 9.34645 5.35532C9.60865 5.35305 9.86125 5.45384 10.0499 5.636L15.7069 11.293Z" fill="white"/>
</g>
<defs>
<clipPath id="clip0_4182_241">
<rect width="24" height="24" fill="white"/>
</clipPath>
</defs>
</svg>
