<svg width="25" height="25" viewBox="0 0 25 25" fill="none" xmlns="http://www.w3.org/2000/svg">
<g clip-path="url(#clip0_3165_677)">
<path fill-rule="evenodd" clip-rule="evenodd" d="M8.63848 13.2365C8.4432 13.0411 8.3335 12.7762 8.3335 12.5C8.3335 12.2238 8.4432 11.9589 8.63848 11.7635L14.5312 5.87083C14.6273 5.77134 14.7422 5.69199 14.8693 5.6374C14.9964 5.5828 15.1331 5.55407 15.2714 5.55287C15.4097 5.55166 15.5469 5.57802 15.6749 5.6304C15.8029 5.68277 15.9192 5.76012 16.017 5.85792C16.1148 5.95573 16.1922 6.07203 16.2445 6.20005C16.2969 6.32807 16.3233 6.46523 16.3221 6.60354C16.3209 6.74186 16.2921 6.87854 16.2375 7.00563C16.183 7.13272 16.1036 7.24766 16.0041 7.34375L10.8479 12.5L16.0041 17.6563C16.1939 17.8527 16.2988 18.1158 16.2965 18.389C16.2941 18.6621 16.1846 18.9233 15.9914 19.1165C15.7983 19.3096 15.537 19.4192 15.2639 19.4215C14.9908 19.4239 14.7277 19.3189 14.5312 19.1292L8.63848 13.2365Z" fill="white"/>
</g>
<defs>
<clipPath id="clip0_3165_677">
<rect width="25" height="25" fill="white"/>
</clipPath>
</defs>
</svg>
