<svg width="32" height="32" viewBox="0 0 32 32" fill="none" xmlns="http://www.w3.org/2000/svg">
<g clip-path="url(#clip0_3141_2544)">
<path fill-rule="evenodd" clip-rule="evenodd" d="M7.04466 4.13025C6.27174 4.13025 5.53048 4.43729 4.98395 4.98382C4.43741 5.53036 4.13037 6.27162 4.13037 7.04453V9.48739C4.13037 9.65623 4.16363 9.82342 4.22824 9.97941C4.29285 10.1354 4.38756 10.2771 4.50695 10.3965C4.62634 10.5159 4.76807 10.6106 4.92406 10.6752C5.08005 10.7399 5.24724 10.7731 5.41609 10.7731C5.58493 10.7731 5.75212 10.7399 5.90811 10.6752C6.0641 10.6106 6.20583 10.5159 6.32522 10.3965C6.44461 10.2771 6.53932 10.1354 6.60393 9.97941C6.66854 9.82342 6.7018 9.65623 6.7018 9.48739V7.04453C6.7018 6.9536 6.73792 6.8664 6.80222 6.8021C6.86652 6.7378 6.95373 6.70168 7.04466 6.70168H9.48751C9.65636 6.70168 9.82355 6.66842 9.97954 6.60381C10.1355 6.5392 10.2773 6.44449 10.3967 6.3251C10.516 6.20571 10.6107 6.06397 10.6754 5.90798C10.74 5.75199 10.7732 5.58481 10.7732 5.41596C10.7732 5.24712 10.74 5.07993 10.6754 4.92394C10.6107 4.76795 10.516 4.62622 10.3967 4.50683C10.2773 4.38744 10.1355 4.29273 9.97954 4.22812C9.82355 4.16351 9.65636 4.13025 9.48751 4.13025H7.04466ZM10.8504 8.70739C9.66751 8.70739 8.70751 9.66739 8.70751 10.8502V14.404C8.70751 15.5868 9.66751 16.5468 10.8504 16.5468H14.4041C15.5869 16.5468 16.5469 15.5868 16.5469 14.404V10.8502C16.5469 9.66739 15.5869 8.70739 14.4041 8.70739H10.8504ZM11.2789 13.9754V11.2788H13.9755V13.9754H11.2789ZM21.2269 5.41596C21.2269 5.07497 21.3624 4.74794 21.6035 4.50683C21.8446 4.26571 22.1717 4.13025 22.5127 4.13025H24.9555C25.7284 4.13025 26.4697 4.43729 27.0162 4.98382C27.5628 5.53036 27.8698 6.27162 27.8698 7.04453V9.48739C27.8698 9.82838 27.7343 10.1554 27.4932 10.3965C27.2521 10.6376 26.9251 10.7731 26.5841 10.7731C26.2431 10.7731 25.9161 10.6376 25.6749 10.3965C25.4338 10.1554 25.2984 9.82838 25.2984 9.48739V7.04453C25.2984 6.9536 25.2622 6.8664 25.198 6.8021C25.1337 6.7378 25.0464 6.70168 24.9555 6.70168H22.5127C22.1717 6.70168 21.8446 6.56622 21.6035 6.3251C21.3624 6.08398 21.2269 5.75696 21.2269 5.41596ZM6.7018 22.5142C6.7018 22.1733 6.56634 21.8462 6.32522 21.6051C6.0841 21.364 5.75708 21.2285 5.41609 21.2285C5.07509 21.2285 4.74807 21.364 4.50695 21.6051C4.26583 21.8462 4.13037 22.1733 4.13037 22.5142V24.9571C4.13037 25.73 4.43741 26.4713 4.98395 27.0178C5.53048 27.5644 6.27174 27.8714 7.04466 27.8714H9.48751C9.82851 27.8714 10.1555 27.7359 10.3967 27.4948C10.6378 27.2537 10.7732 26.9267 10.7732 26.5857C10.7732 26.2447 10.6378 25.9177 10.3967 25.6765C10.1555 25.4354 9.82851 25.3 9.48751 25.3H7.04466C6.95373 25.3 6.86652 25.2638 6.80222 25.1995C6.73792 25.1352 6.7018 25.048 6.7018 24.9571V22.5142ZM26.5841 21.2285C26.9251 21.2285 27.2521 21.364 27.4932 21.6051C27.7343 21.8462 27.8698 22.1733 27.8698 22.5142V24.9571C27.8698 25.73 27.5628 26.4713 27.0162 27.0178C26.4697 27.5644 25.7284 27.8714 24.9555 27.8714H22.5127C22.1717 27.8714 21.8446 27.7359 21.6035 27.4948C21.3624 27.2537 21.2269 26.9267 21.2269 26.5857C21.2269 26.2447 21.3624 25.9177 21.6035 25.6765C21.8446 25.4354 22.1717 25.3 22.5127 25.3H24.9555C25.0464 25.3 25.1337 25.2638 25.198 25.1995C25.2622 25.1352 25.2984 25.048 25.2984 24.9571V22.5142C25.2984 22.1733 25.4338 21.8462 25.6749 21.6051C25.9161 21.364 26.2431 21.2285 26.5841 21.2285ZM11.2789 19.7542C11.2789 19.4133 11.1435 19.0862 10.9024 18.8451C10.6612 18.604 10.3342 18.4685 9.99323 18.4685C9.65224 18.4685 9.32521 18.604 9.08409 18.8451C8.84297 19.0862 8.70751 19.4133 8.70751 19.7542V22.0068C8.70751 22.7165 9.28351 23.2925 9.99323 23.2925H12.2458C12.5868 23.2925 12.9138 23.1571 13.1549 22.916C13.3961 22.6748 13.5315 22.3478 13.5315 22.0068C13.5315 21.6658 13.3961 21.3388 13.1549 21.0977C12.9138 20.8566 12.5868 20.7211 12.2458 20.7211H11.2789V19.7542ZM13.7818 19.7542C13.7818 19.4133 13.9173 19.0862 14.1584 18.8451C14.3995 18.604 14.7265 18.4685 15.0675 18.4685H16.0001C16.3411 18.4685 16.6681 18.604 16.9092 18.8451C17.1503 19.0862 17.2858 19.4133 17.2858 19.7542V22.0068C17.2858 22.3478 17.1503 22.6748 16.9092 22.916C16.6681 23.1571 16.3411 23.2925 16.0001 23.2925C15.6591 23.2925 15.3321 23.1571 15.0909 22.916C14.8498 22.6748 14.7144 22.3478 14.7144 22.0068V20.9902C14.446 20.9136 14.2099 20.7517 14.0417 20.5291C13.8734 20.3064 13.7822 20.035 13.7818 19.756V19.7542ZM21.0401 9.99311C21.0401 9.65211 20.9046 9.32509 20.6635 9.08397C20.4224 8.84285 20.0954 8.70739 19.7544 8.70739C19.4134 8.70739 19.0864 8.84285 18.8452 9.08397C18.6041 9.32509 18.4687 9.65211 18.4687 9.99311V12.2457C18.4687 12.9554 19.0447 13.5314 19.7544 13.5314H22.0069C22.3479 13.5314 22.675 13.3959 22.9161 13.1548C23.1572 12.9137 23.2927 12.5867 23.2927 12.2457C23.2927 11.9047 23.1572 11.5777 22.9161 11.3365C22.675 11.0954 22.3479 10.96 22.0069 10.96H21.0401V9.99311ZM18.4687 16C18.4687 15.659 18.6041 15.3319 18.8452 15.0908C19.0864 14.8497 19.4134 14.7142 19.7544 14.7142H22.0069C22.3479 14.7142 22.675 14.8497 22.9161 15.0908C23.1572 15.3319 23.2927 15.659 23.2927 16V17.0954C23.2934 17.4204 23.1711 17.7336 22.9502 17.9721C22.7294 18.2105 22.4264 18.3565 22.1023 18.3806C21.7782 18.4047 21.457 18.3052 21.2033 18.102C20.9496 17.8989 20.7823 17.6072 20.7349 17.2857H19.7544C19.4134 17.2857 19.0864 17.1502 18.8452 16.9091C18.6041 16.668 18.4687 16.341 18.4687 16ZM21.0401 19.7542C21.0401 19.4133 20.9046 19.0862 20.6635 18.8451C20.4224 18.604 20.0954 18.4685 19.7544 18.4685C19.4134 18.4685 19.0864 18.604 18.8452 18.8451C18.6041 19.0862 18.4687 19.4133 18.4687 19.7542V22.0068C18.4687 22.7165 19.0447 23.2925 19.7544 23.2925H22.0069C22.3479 23.2925 22.675 23.1571 22.9161 22.916C23.1572 22.6748 23.2927 22.3478 23.2927 22.0068C23.2927 21.6658 23.1572 21.3388 22.9161 21.0977C22.675 20.8566 22.3479 20.7211 22.0069 20.7211H21.0401V19.7542Z" fill="#484A4D"/>
</g>
<defs>
<clipPath id="clip0_3141_2544">
<rect width="24" height="24" fill="white" transform="translate(4 4)"/>
</clipPath>
</defs>
</svg>
