<svg width="69" height="19" viewBox="0 0 69 19" fill="none" xmlns="http://www.w3.org/2000/svg">
<path d="M0.234156 4.2C0.234156 3.288 0.498156 2.56 1.02616 2.016C1.57016 1.472 2.35416 1.2 3.37816 1.2H7.86616C12.2182 1.2 14.3942 3.008 14.3942 6.624C14.3942 8.368 13.8662 9.688 12.8102 10.584C11.7542 11.48 10.1622 11.928 8.03416 11.928L12.6902 16.752C12.8342 16.896 12.9062 17.08 12.9062 17.304C12.9062 17.592 12.7862 17.824 12.5462 18C12.3542 18.144 12.1542 18.216 11.9462 18.216C11.6262 18.216 11.3222 18.056 11.0342 17.736L5.51416 11.928H2.27416V17.208C2.27416 17.528 2.17816 17.784 1.98616 17.976C1.81016 18.152 1.56216 18.24 1.24216 18.24C0.922156 18.24 0.674156 18.152 0.498156 17.976C0.322156 17.784 0.234156 17.528 0.234156 17.208V4.2ZM7.98616 10.272C9.45816 10.272 10.5462 10 11.2502 9.456C11.9702 8.896 12.3302 7.952 12.3302 6.624C12.3302 5.28 11.9702 4.32 11.2502 3.744C10.5302 3.152 9.44216 2.856 7.98616 2.856H3.49816C3.13016 2.856 2.83416 2.976 2.61016 3.216C2.38616 3.456 2.27416 3.784 2.27416 4.2V10.272H7.98616ZM24.8439 18.24C23.2279 18.24 21.7719 17.888 20.4759 17.184C19.1799 16.464 18.1559 15.448 17.4039 14.136C16.6679 12.824 16.2999 11.312 16.2999 9.6C16.2999 7.872 16.6679 6.36 17.4039 5.064C18.1559 3.752 19.1799 2.744 20.4759 2.04C21.7719 1.32 23.2279 0.959999 24.8439 0.959999C26.4599 0.959999 27.9159 1.32 29.2119 2.04C30.5079 2.744 31.5239 3.752 32.2599 5.064C33.0119 6.36 33.3879 7.872 33.3879 9.6C33.3879 11.312 33.0119 12.824 32.2599 14.136C31.5239 15.448 30.5079 16.464 29.2119 17.184C27.9159 17.888 26.4599 18.24 24.8439 18.24ZM24.8439 16.704C26.1399 16.704 27.2919 16.424 28.2999 15.864C29.3239 15.304 30.1239 14.496 30.6999 13.44C31.2919 12.368 31.5879 11.088 31.5879 9.6C31.5879 8.096 31.2839 6.808 30.6759 5.736C30.0839 4.664 29.2679 3.856 28.2279 3.312C27.2039 2.768 26.0599 2.496 24.7959 2.496C23.5159 2.496 22.3639 2.776 21.3399 3.336C20.3319 3.896 19.5399 4.712 18.9639 5.784C18.3879 6.856 18.0999 8.128 18.0999 9.6C18.0999 11.088 18.3879 12.368 18.9639 13.44C19.5559 14.496 20.3559 15.304 21.3639 15.864C22.3879 16.424 23.5479 16.704 24.8439 16.704ZM44.5314 18.24C42.9154 18.24 41.4594 17.888 40.1634 17.184C38.8674 16.464 37.8434 15.448 37.0914 14.136C36.3554 12.824 35.9874 11.312 35.9874 9.6C35.9874 7.872 36.3554 6.36 37.0914 5.064C37.8434 3.752 38.8674 2.744 40.1634 2.04C41.4594 1.32 42.9154 0.959999 44.5314 0.959999C46.1474 0.959999 47.6034 1.32 48.8994 2.04C50.1954 2.744 51.2114 3.752 51.9474 5.064C52.6994 6.36 53.0754 7.872 53.0754 9.6C53.0754 11.312 52.6994 12.824 51.9474 14.136C51.2114 15.448 50.1954 16.464 48.8994 17.184C47.6034 17.888 46.1474 18.24 44.5314 18.24ZM44.5314 16.704C45.8274 16.704 46.9794 16.424 47.9874 15.864C49.0114 15.304 49.8114 14.496 50.3874 13.44C50.9794 12.368 51.2754 11.088 51.2754 9.6C51.2754 8.096 50.9714 6.808 50.3634 5.736C49.7714 4.664 48.9554 3.856 47.9154 3.312C46.8914 2.768 45.7474 2.496 44.4834 2.496C43.2034 2.496 42.0514 2.776 41.0274 3.336C40.0194 3.896 39.2274 4.712 38.6514 5.784C38.0754 6.856 37.7874 8.128 37.7874 9.6C37.7874 11.088 38.0754 12.368 38.6514 13.44C39.2434 14.496 40.0434 15.304 41.0514 15.864C42.0754 16.424 43.2354 16.704 44.5314 16.704ZM61.1846 18.24C60.8966 18.24 60.6726 18.16 60.5126 18C60.3686 17.824 60.2966 17.584 60.2966 17.28V2.688H54.8006C54.5126 2.688 54.2806 2.632 54.1046 2.52C53.9446 2.392 53.8646 2.208 53.8646 1.968C53.8646 1.456 54.1766 1.2 54.8006 1.2H67.6166C68.2406 1.2 68.5526 1.456 68.5526 1.968C68.5526 2.192 68.4726 2.368 68.3126 2.496C68.1526 2.624 67.9206 2.688 67.6166 2.688H62.1206V17.28C62.1206 17.584 62.0326 17.824 61.8566 18C61.6966 18.16 61.4726 18.24 61.1846 18.24Z" fill="url(#paint0_linear_3584_1352)"/>
<defs>
<linearGradient id="paint0_linear_3584_1352" x1="70" y1="9.5" x2="-2" y2="9.5" gradientUnits="userSpaceOnUse">
<stop stop-color="#D5A0FF"/>
<stop offset="0.76" stop-color="#9CE6FE"/>
</linearGradient>
</defs>
</svg>
