<svg width="32" height="32" viewBox="0 0 32 32" fill="none" xmlns="http://www.w3.org/2000/svg">
<g clip-path="url(#clip0_3141_2546)">
<path d="M6.66667 29.6667C5.93333 29.6667 5.30556 29.4056 4.78333 28.8833C4.26111 28.3611 4 27.7333 4 27V8.33333C4 7.6 4.26111 6.97222 4.78333 6.45C5.30556 5.92778 5.93333 5.66667 6.66667 5.66667H8V4.33333C8 3.95556 8.12778 3.63889 8.38333 3.38333C8.63889 3.12778 8.95556 3 9.33333 3C9.71111 3 10.0278 3.12778 10.2833 3.38333C10.5389 3.63889 10.6667 3.95556 10.6667 4.33333V5.66667H21.3333V4.33333C21.3333 3.95556 21.4611 3.63889 21.7167 3.38333C21.9722 3.12778 22.2889 3 22.6667 3C23.0444 3 23.3611 3.12778 23.6167 3.38333C23.8722 3.63889 24 3.95556 24 4.33333V5.66667H25.3333C26.0667 5.66667 26.6944 5.92778 27.2167 6.45C27.7389 6.97222 28 7.6 28 8.33333V27C28 27.7333 27.7389 28.3611 27.2167 28.8833C26.6944 29.4056 26.0667 29.6667 25.3333 29.6667H6.66667ZM6.66667 27H25.3333V13.6667H6.66667V27ZM10.6667 19C10.2889 19 9.97222 18.8722 9.71667 18.6167C9.46111 18.3611 9.33333 18.0444 9.33333 17.6667C9.33333 17.2889 9.46111 16.9722 9.71667 16.7167C9.97222 16.4611 10.2889 16.3333 10.6667 16.3333H21.3333C21.7111 16.3333 22.0278 16.4611 22.2833 16.7167C22.5389 16.9722 22.6667 17.2889 22.6667 17.6667C22.6667 18.0444 22.5389 18.3611 22.2833 18.6167C22.0278 18.8722 21.7111 19 21.3333 19H10.6667ZM10.6667 24.3333C10.2889 24.3333 9.97222 24.2056 9.71667 23.95C9.46111 23.6944 9.33333 23.3778 9.33333 23C9.33333 22.6222 9.46111 22.3056 9.71667 22.05C9.97222 21.7944 10.2889 21.6667 10.6667 21.6667H17.3333C17.7111 21.6667 18.0278 21.7944 18.2833 22.05C18.5389 22.3056 18.6667 22.6222 18.6667 23C18.6667 23.3778 18.5389 23.6944 18.2833 23.95C18.0278 24.2056 17.7111 24.3333 17.3333 24.3333H10.6667Z" fill="#484A4D"/>
</g>
<defs>
<clipPath id="clip0_3141_2546">
<rect width="32" height="32" fill="white"/>
</clipPath>
</defs>
</svg>
