<svg width="68" height="68" viewBox="0 0 68 68" fill="none" xmlns="http://www.w3.org/2000/svg">
<path d="M34.0001 62.3333C37.7216 62.3379 41.4072 61.6071 44.8454 60.183C48.2836 58.7588 51.4064 56.6693 54.0346 54.0345C56.6694 51.4063 58.7589 48.2835 60.1831 44.8453C61.6072 41.4072 62.338 37.7215 62.3334 34C62.338 30.2786 61.6072 26.5929 60.1831 23.1547C58.7589 19.7165 56.6694 16.5937 54.0346 13.9655C51.4064 11.3307 48.2836 9.24124 44.8454 7.81706C41.4072 6.39288 37.7216 5.66209 34.0001 5.66668C30.2786 5.66209 26.593 6.39288 23.1548 7.81706C19.7166 9.24124 16.5938 11.3307 13.9656 13.9655C11.3308 16.5937 9.24133 19.7165 7.81715 23.1547C6.39297 26.5929 5.66218 30.2786 5.66677 34C5.66218 37.7215 6.39297 41.4072 7.81715 44.8453C9.24133 48.2835 11.3308 51.4063 13.9656 54.0345C16.5938 56.6693 19.7166 58.7588 23.1548 60.183C26.593 61.6071 30.2786 62.3379 34.0001 62.3333Z" stroke="#6686FF" stroke-width="5" stroke-linejoin="round"/>
<path d="M22.6667 34L31.1667 42.5L48.1667 25.5" stroke="#6686FF" stroke-width="5" stroke-linecap="round" stroke-linejoin="round"/>
</svg>
